{
	"asset":{
		"generator":"Khronos glTF Blender I/O v4.0.43",
		"version":"2.0"
	},
	"scene":0,
	"scenes":[
		{
			"name":"Scene",
			"nodes":[
				0
			]
		}
	],
	"nodes":[
		{
			"mesh":0,
			"name":"Cemi",
			"translation":[
				0.008244426921010017,
				0.2376747727394104,
				-0.11026644706726074
			]
		}
	],
	"materials":[
		{
			"doubleSided":true,
			"name":"MAT_Cemi_Cotone",
			"pbrMetallicRoughness":{
				"baseColorTexture":{
					"index":0
				},
				"metallicFactor":0,
				"roughnessFactor":0.858578622341156
			}
		}
	],
	"meshes":[
		{
			"name":"Mesh.004",
			"primitives":[
				{
					"attributes":{
						"POSITION":0,
						"NORMAL":1,
						"TEXCOORD_0":2
					},
					"indices":3,
					"material":0
				}
			]
		}
	],
	"textures":[
		{
			"sampler":0,
			"source":0
		}
	],
	"images":[
		{
			"mimeType":"image/jpeg",
			"name":"Cemi_Diffuse.jpg",
			"uri":"Cemi_Diffuse_jpg.jpg"
		}
	],
	"accessors":[
		{
			"bufferView":0,
			"componentType":5126,
			"count":195134,
			"max":[
				0.194404736161232,
				0.31001612544059753,
				0.3225477337837219
			],
			"min":[
				-0.2109501212835312,
				-0.23748807609081268,
				-0.10192042589187622
			],
			"type":"VEC3"
		},
		{
			"bufferView":1,
			"componentType":5126,
			"count":195134,
			"type":"VEC3"
		},
		{
			"bufferView":2,
			"componentType":5126,
			"count":195134,
			"type":"VEC2"
		},
		{
			"bufferView":3,
			"componentType":5125,
			"count":772503,
			"type":"SCALAR"
		}
	],
	"bufferViews":[
		{
			"buffer":0,
			"byteLength":2341608,
			"byteOffset":0,
			"target":34962
		},
		{
			"buffer":0,
			"byteLength":2341608,
			"byteOffset":2341608,
			"target":34962
		},
		{
			"buffer":0,
			"byteLength":1561072,
			"byteOffset":4683216,
			"target":34962
		},
		{
			"buffer":0,
			"byteLength":3090012,
			"byteOffset":6244288,
			"target":34963
		}
	],
	"samplers":[
		{
			"magFilter":9729,
			"minFilter":9987
		}
	],
	"buffers":[
		{
			"byteLength":9334300,
			"uri":"Cemi_esterno.bin"
		}
	]
}
