{
	"asset":{
		"generator":"Khronos glTF Blender I/O v4.0.43",
		"version":"2.0"
	},
	"extensionsUsed":[
		"KHR_materials_specular",
		"KHR_materials_ior"
	],
	"scene":0,
	"scenes":[
		{
			"name":"Scene",
			"nodes":[
				0,
				1,
				2,
				3
			]
		}
	],
	"nodes":[
		{
			"mesh":0,
			"name":"Paletta_low",
			"translation":[
				0.011645224876701832,
				0.3679482042789459,
				-0.13339751958847046
			]
		},
		{
			"mesh":1,
			"name":"Cranio_low",
			"translation":[
				0.003435681341215968,
				0.42871716618537903,
				-0.08561581373214722
			]
		},
		{
			"mesh":2,
			"name":"Zemi_Trasparente_low",
			"translation":[
				0.008244426921010017,
				0.2376747727394104,
				-0.11026643961668015
			]
		},
		{
			"mesh":3,
			"name":"Pietra_low",
			"translation":[
				0.010057639330625534,
				0.27769532799720764,
				-0.09998349100351334
			]
		}
	],
	"materials":[
		{
			"doubleSided":true,
			"name":"MAT_Paletta",
			"normalTexture":{
				"index":0
			},
			"pbrMetallicRoughness":{
				"baseColorTexture":{
					"index":1
				},
				"metallicFactor":0,
				"metallicRoughnessTexture":{
					"index":2
				}
			}
		},
		{
			"doubleSided":true,
			"name":"MAT_Cranio",
			"normalTexture":{
				"index":3
			},
			"pbrMetallicRoughness":{
				"baseColorTexture":{
					"index":4
				},
				"metallicFactor":0,
				"metallicRoughnessTexture":{
					"index":5
				}
			}
		},
		{
			"alphaMode":"BLEND",
			"doubleSided":true,
			"extensions":{
				"KHR_materials_specular":{
					"specularFactor":0.5135952234268188
				},
				"KHR_materials_ior":{
					"ior":1.4500000476837158
				}
			},
			"name":"MAT_Zemi_Trasparente",
			"pbrMetallicRoughness":{
				"baseColorTexture":{
					"index":6
				},
				"metallicFactor":0.5,
				"roughnessFactor":0.1752265840768814
			}
		},
		{
			"doubleSided":true,
			"name":"MAT_Pietra",
			"normalTexture":{
				"index":7
			},
			"pbrMetallicRoughness":{
				"baseColorTexture":{
					"index":8
				},
				"metallicFactor":0,
				"roughnessFactor":0.5195537805557251
			}
		}
	],
	"meshes":[
		{
			"name":"Mesh.001",
			"primitives":[
				{
					"attributes":{
						"POSITION":0,
						"NORMAL":1,
						"TEXCOORD_0":2
					},
					"indices":3,
					"material":0
				}
			]
		},
		{
			"name":"Mesh.016",
			"primitives":[
				{
					"attributes":{
						"POSITION":4,
						"NORMAL":5,
						"TEXCOORD_0":6
					},
					"indices":7,
					"material":1
				}
			]
		},
		{
			"name":"Zemi_Trasparente_low1",
			"primitives":[
				{
					"attributes":{
						"POSITION":8,
						"NORMAL":9,
						"TEXCOORD_0":10
					},
					"indices":11,
					"material":2
				}
			]
		},
		{
			"name":"ZEMI_Pietra_low.001",
			"primitives":[
				{
					"attributes":{
						"POSITION":12,
						"NORMAL":13,
						"TEXCOORD_0":14
					},
					"indices":15,
					"material":3
				}
			]
		}
	],
	"textures":[
		{
			"sampler":0,
			"source":0
		},
		{
			"sampler":0,
			"source":1
		},
		{
			"sampler":0,
			"source":2
		},
		{
			"sampler":0,
			"source":3
		},
		{
			"sampler":0,
			"source":4
		},
		{
			"sampler":0,
			"source":5
		},
		{
			"sampler":0,
			"source":6
		},
		{
			"sampler":0,
			"source":7
		},
		{
			"sampler":0,
			"source":8
		}
	],
	"images":[
		{
			"mimeType":"image/jpeg",
			"name":"Paletta_Normal",
			"uri":"Paletta_Normal.jpg"
		},
		{
			"mimeType":"image/jpeg",
			"name":"Paletta_Diffuse_AO",
			"uri":"Paletta_Diffuse_AO.jpg"
		},
		{
			"mimeType":"image/png",
			"name":"Paletta_Roughness",
			"uri":"Paletta_Roughness.png"
		},
		{
			"mimeType":"image/jpeg",
			"name":"Cranio_Normal",
			"uri":"Cranio_Normal.jpg"
		},
		{
			"mimeType":"image/jpeg",
			"name":"Cranio_Diffuse",
			"uri":"Cranio_Diffuse.jpg"
		},
		{
			"mimeType":"image/png",
			"name":"Cranio_Roughness",
			"uri":"Cranio_Roughness.png"
		},
		{
			"mimeType":"image/png",
			"name":"Zemi_Gradient_Trasparenza_3",
			"uri":"Zemi_Gradient_Trasparenza_3.png"
		},
		{
			"mimeType":"image/jpeg",
			"name":"Pietra_Normal",
			"uri":"Pietra_Normal.jpg"
		},
		{
			"mimeType":"image/jpeg",
			"name":"Pietra_Diffuse_AO",
			"uri":"Pietra_Diffuse_AO.jpg"
		}
	],
	"accessors":[
		{
			"bufferView":0,
			"componentType":5126,
			"count":8558,
			"max":[
				0.05645177513360977,
				0.1651231050491333,
				0.023082558065652847
			],
			"min":[
				-0.05379043519496918,
				-0.19220726191997528,
				-0.02067975141108036
			],
			"type":"VEC3"
		},
		{
			"bufferView":1,
			"componentType":5126,
			"count":8558,
			"type":"VEC3"
		},
		{
			"bufferView":2,
			"componentType":5126,
			"count":8558,
			"type":"VEC2"
		},
		{
			"bufferView":3,
			"componentType":5123,
			"count":46920,
			"type":"SCALAR"
		},
		{
			"bufferView":4,
			"componentType":5126,
			"count":194965,
			"max":[
				0.07198765128850937,
				0.11228565126657486,
				0.059249281883239746
			],
			"min":[
				-0.06975998729467392,
				-0.08435847610235214,
				-0.07108888030052185
			],
			"type":"VEC3"
		},
		{
			"bufferView":5,
			"componentType":5126,
			"count":194965,
			"type":"VEC3"
		},
		{
			"bufferView":6,
			"componentType":5126,
			"count":194965,
			"type":"VEC2"
		},
		{
			"bufferView":7,
			"componentType":5125,
			"count":604854,
			"type":"SCALAR"
		},
		{
			"bufferView":8,
			"componentType":5126,
			"count":12466,
			"max":[
				0.1917169839143753,
				0.30879703164100647,
				0.3204900622367859
			],
			"min":[
				-0.2021210491657257,
				-0.23648419976234436,
				-0.09461488574743271
			],
			"type":"VEC3"
		},
		{
			"bufferView":9,
			"componentType":5126,
			"count":12466,
			"type":"VEC3"
		},
		{
			"bufferView":10,
			"componentType":5126,
			"count":12466,
			"type":"VEC2"
		},
		{
			"bufferView":11,
			"componentType":5123,
			"count":74754,
			"type":"SCALAR"
		},
		{
			"bufferView":12,
			"componentType":5126,
			"count":5629,
			"max":[
				0.05242835730314255,
				0.0745869055390358,
				0.01866821199655533
			],
			"min":[
				-0.04912479221820831,
				-0.08090254664421082,
				-0.018857304006814957
			],
			"type":"VEC3"
		},
		{
			"bufferView":13,
			"componentType":5126,
			"count":5629,
			"type":"VEC3"
		},
		{
			"bufferView":14,
			"componentType":5126,
			"count":5629,
			"type":"VEC2"
		},
		{
			"bufferView":15,
			"componentType":5123,
			"count":31668,
			"type":"SCALAR"
		}
	],
	"bufferViews":[
		{
			"buffer":0,
			"byteLength":102696,
			"byteOffset":0,
			"target":34962
		},
		{
			"buffer":0,
			"byteLength":102696,
			"byteOffset":102696,
			"target":34962
		},
		{
			"buffer":0,
			"byteLength":68464,
			"byteOffset":205392,
			"target":34962
		},
		{
			"buffer":0,
			"byteLength":93840,
			"byteOffset":273856,
			"target":34963
		},
		{
			"buffer":0,
			"byteLength":2339580,
			"byteOffset":367696,
			"target":34962
		},
		{
			"buffer":0,
			"byteLength":2339580,
			"byteOffset":2707276,
			"target":34962
		},
		{
			"buffer":0,
			"byteLength":1559720,
			"byteOffset":5046856,
			"target":34962
		},
		{
			"buffer":0,
			"byteLength":2419416,
			"byteOffset":6606576,
			"target":34963
		},
		{
			"buffer":0,
			"byteLength":149592,
			"byteOffset":9025992,
			"target":34962
		},
		{
			"buffer":0,
			"byteLength":149592,
			"byteOffset":9175584,
			"target":34962
		},
		{
			"buffer":0,
			"byteLength":99728,
			"byteOffset":9325176,
			"target":34962
		},
		{
			"buffer":0,
			"byteLength":149508,
			"byteOffset":9424904,
			"target":34963
		},
		{
			"buffer":0,
			"byteLength":67548,
			"byteOffset":9574412,
			"target":34962
		},
		{
			"buffer":0,
			"byteLength":67548,
			"byteOffset":9641960,
			"target":34962
		},
		{
			"buffer":0,
			"byteLength":45032,
			"byteOffset":9709508,
			"target":34962
		},
		{
			"buffer":0,
			"byteLength":63336,
			"byteOffset":9754540,
			"target":34963
		}
	],
	"samplers":[
		{
			"magFilter":9729,
			"minFilter":9987
		}
	],
	"buffers":[
		{
			"byteLength":9817876,
			"uri":"Zemi_interno.bin"
		}
	]
}
